<svg width="153" height="21" viewBox="0 0 153 21" fill="none" xmlns="http://www.w3.org/2000/svg">
<path d="M21.2962 20.0522C23.9529 20.0522 28.2756 18.5035 28.2756 14.4027C28.2756 11.4106 26.0585 9.75044 26.0585 9.75044C26.0585 9.75044 30.0467 8.20177 30.0467 4.76372C30.0467 0 25.0615 0 25.0615 0H5.01513L0.692505 20.0522H21.2962ZM19.4136 4.76372C19.4136 4.76372 21.1847 4.76372 20.745 6.31239C20.4106 7.53274 19.1968 7.53274 19.1968 7.53274H11.4371L11.9883 4.76372H19.4136ZM17.9706 11.9681C17.9706 11.9681 19.7418 11.9681 19.3021 13.5168C18.9677 14.7372 17.7539 14.7372 17.7539 14.7372H9.9942L10.6568 11.9681H17.9706ZM33.2608 3.54336H41.3487L42.0114 0H34.0349L33.2608 3.54336ZM37.9117 20.1637L40.7914 5.31504H32.9264L29.6008 20.1637H37.9117ZM50.8734 16.2858C49.2137 16.2858 48.3281 15.7345 48.5448 15.0655C48.9907 13.1823 54.8616 13.9566 56.5213 13.6221C57.2954 14.4027 54.5271 16.3973 50.8734 16.2858ZM63.1662 20.0522L65.3833 9.63894C65.3833 8.30708 65.0488 3.43186 56.0816 3.54336C47.8822 3.65487 44.3337 5.76106 43.5596 8.8646H51.536C52.0872 7.64425 53.8645 7.53274 55.0783 7.53274C55.9639 7.53274 57.958 7.53274 57.7351 9.08142C57.4006 10.9646 43.3366 7.63805 41.6707 14.731C40.8966 17.8345 41.7822 20.0522 47.2072 20.492C51.7465 20.8265 55.8462 19.1602 55.8462 19.1602V20.046L63.1662 20.0522ZM102.931 3.54336C109.353 2.99204 115.007 6.42389 115.446 11.1876H106.919C106.696 9.96726 106.033 9.08142 104.813 8.7469C103.042 8.19557 100.825 9.40973 100.274 11.2929C99.7227 13.2876 100.72 15.1708 102.491 15.6168C104.262 16.1681 106.145 15.0655 106.702 13.1761H115.23C114.344 17.1655 109.91 20.492 104.374 20.9319C97.8401 21.4832 92.2975 18.0513 91.8578 13.1761C91.5234 8.53009 96.3972 4.10088 102.931 3.54336ZM148.789 20.1637L151.78 5.31504H143.804L140.478 20.1637H148.789ZM66.2688 20.0522H74.3567L76.1279 11.2991C76.2394 10.9646 76.4623 9.08142 79.2305 9.08142C81.6705 9.08142 81.559 10.7416 81.4476 11.4106C81.3361 11.9619 79.6764 20.0522 79.6764 20.0522H88.0925L89.8637 11.1876C91.1952 6.75841 88.9781 3.87168 84.1043 3.87168C81.0017 3.87168 77.5708 5.31504 77.5708 5.31504L77.7938 4.20619H69.7059L66.2688 20.0522ZM116.004 20.0522H124.092L125.863 11.2991C125.974 10.9646 126.197 9.08142 128.965 9.08142C131.405 9.08142 131.294 10.7416 131.183 11.4106C131.071 11.9619 129.411 20.0522 129.411 20.0522H137.827L139.599 11.1876C140.93 6.75841 138.713 3.87168 133.839 3.87168C130.737 3.87168 127.306 5.31504 127.306 5.31504L128.408 0H120.32L116.004 20.0522ZM144.249 3.54336H152.226L153 0H145.024L144.249 3.54336Z" fill="#010202"/>
</svg>
