<svg width="168" height="22" viewBox="0 0 168 22" fill="none" xmlns="http://www.w3.org/2000/svg">
<path d="M82.988 8.68334H72.5244V0.65H69.3587V21.05H72.5244V11.3833H82.988V21.05H86.1204V0.65H82.988V8.68334ZM52.1138 0.583333C50.9641 0.55 48.6314 0.55 46.5654 0.55V21.0333H49.7644V13.2667C50.5642 13.2667 52.2137 13.2 53.5467 13.1667C55.4128 13.1333 60.278 12.2 60.2447 6.58333C60.2947 0.25 53.2801 0.583333 52.1138 0.583333ZM51.9471 10.55H49.8311V3.16667H51.6306C52.4636 3.16667 57.3789 2.8 57.5288 6.61667C57.7288 10.3667 53.8466 10.55 51.9471 10.55ZM22.5891 0.55L22.6224 21.0333H35.4686V18.3667H25.8215V11.4167H32.6528C32.6528 10.8333 32.6195 9.98334 32.6528 8.86667H25.8215V3.28333H35.4686C35.4353 1.66667 35.4686 0.55 35.4686 0.55H22.5891ZM3.91122 5.55C3.91122 2.2 8.34326 2.06667 10.9592 4.21667C11.8589 1.63333 11.9255 1.45 11.9255 1.45C4.29444 -2.21667 0.812132 2.63333 0.812132 5.73334C0.812132 13.15 11.3257 11.5667 9.80949 16.7833C9.27632 18.6833 5.89397 19.7667 1.99512 17.4C1.71187 18.2 1.24534 19.1667 0.778809 20.1333C5.9273 22.8333 12.6087 21.5333 12.8253 15.9667C13.1252 8.96667 3.91122 9.46667 3.91122 5.55ZM138.938 6.3C138.472 0.216667 132.573 0.683333 131.274 0.616667C130.191 0.583333 127.892 0.55 125.909 0.55V21H129.108V12.4C130.191 12.4 130.541 12.4 132.174 12.3333L138.005 21H141.887L135.439 11.8C137.172 11.1667 139.188 9.68334 138.938 6.3ZM131.091 10C130.374 10 129.824 10 129.108 9.96667V3.05H130.791C131.59 3.05 135.789 2.8 136.156 6.15C136.606 10.1167 131.957 10 131.091 10ZM160.049 0.583333H156.35L149.652 21.0667H152.818C153.817 17.3667 154.15 16.3167 154.15 16.3167L162.431 16.2833C163.398 19.0167 164.114 21.1 164.114 21.1H167.397L160.049 0.583333ZM154.884 13.9667L158.116 3.85H158.149L161.532 13.9333L154.884 13.9667ZM105.981 0C99.4665 0 95.2178 4.81667 95.2178 10.8C95.2178 16.7833 99.4665 21.6 105.981 21.6C112.496 21.6 116.745 16.7833 116.745 10.8C116.745 4.81667 112.496 0 105.981 0ZM105.981 18.65C101.199 18.65 98.5001 15.1667 98.5001 10.8C98.5001 6.48334 101.199 2.95 105.981 2.95C110.73 2.95 113.462 6.43333 113.462 10.8C113.462 15.1167 110.763 18.65 105.981 18.65Z" fill="black"/>
</svg>
