<svg width="111" height="34" viewBox="0 0 111 34" fill="none" xmlns="http://www.w3.org/2000/svg">
<path d="M36.5969 20.8208C36.5969 13.7896 42.2976 8.08276 49.3268 8.08276C56.3559 8.08276 62.0567 13.7896 62.0567 20.8208C62.0567 27.8564 56.3559 33.5544 49.3268 33.5544C42.2976 33.55 36.5969 27.8564 36.5969 20.8208ZM49.318 26.664C52.5422 26.664 55.1507 24.0504 55.1507 20.8252C55.1507 17.6 52.5422 14.9864 49.318 14.9864C46.0893 14.9864 43.4853 17.6044 43.4853 20.8252C43.4809 24.0504 46.0893 26.664 49.318 26.664Z" fill="black"/>
<path d="M0.848633 0H11.4935L17.5109 20.1696H17.5989L23.7087 0H34.0589V32.8504H27.2145V9.6184H27.1221L20.5548 32.8504H14.2647L7.7854 9.6184H7.69302V32.8504H0.848633L0.848633 0ZM93.3315 6.4768H100.176V0H93.3315V6.4768ZM93.3315 32.8504H100.176V8.7824H93.3315V32.8504ZM103.972 32.8504H110.816V0H103.972V32.8504ZM64.929 32.8504H71.769V30.7164C73.5285 32.6612 75.7498 33.4048 78.3407 33.4048C85.2335 33.4048 90.4635 27.6232 90.4635 20.8648C90.4635 14.1152 85.2775 8.2368 78.3407 8.2368C75.8422 8.2368 73.6737 9.02 71.769 10.6436V0H64.929V32.8504ZM71.8526 20.8252C71.8526 17.6 74.461 14.9864 77.6853 14.9864C80.9095 14.9864 83.5224 17.6044 83.5224 20.8252C83.5224 24.0504 80.9139 26.664 77.6853 26.664C74.461 26.664 71.8526 24.0504 71.8526 20.8252Z" fill="black"/>
</svg>
