<svg width="130" height="34" viewBox="0 0 130 34" fill="none" xmlns="http://www.w3.org/2000/svg">
<path d="M126.234 5.96859H126.803C127.076 5.96859 127.262 5.92745 127.362 5.84722C127.41 5.80889 127.448 5.75991 127.474 5.70419C127.499 5.64848 127.512 5.58757 127.509 5.52632C127.511 5.44389 127.485 5.36321 127.438 5.29592C127.389 5.22653 127.319 5.17394 127.239 5.14524C127.155 5.10924 126.997 5.09484 126.767 5.09484H126.234V5.96859ZM125.764 7.60707V4.69885H126.763C127.104 4.69885 127.353 4.7261 127.506 4.77907C127.658 4.83256 127.78 4.92719 127.871 5.06193C127.962 5.19409 128.008 5.33655 128.008 5.48569C128.008 5.69911 127.93 5.88322 127.779 6.0411C127.627 6.19796 127.426 6.28693 127.175 6.30596C127.278 6.34864 127.36 6.40007 127.422 6.45972C127.538 6.57338 127.681 6.76623 127.851 7.03674L128.204 7.60759H127.627L127.371 7.14834C127.167 6.78937 127.006 6.56361 126.885 6.47258C126.798 6.40418 126.674 6.36973 126.51 6.36973H126.234V7.60707H125.764ZM126.947 3.85081C126.567 3.85081 126.197 3.94852 125.836 4.14292C125.48 4.3353 125.186 4.62611 124.991 4.98067C124.792 5.32507 124.687 5.71551 124.686 6.1131C124.686 6.50344 124.786 6.87732 124.984 7.23628C125.185 7.59319 125.464 7.87192 125.824 8.07146C126.166 8.26802 126.553 8.37174 126.947 8.37231C127.338 8.37231 127.712 8.27254 128.07 8.07146C128.423 7.87852 128.713 7.58873 128.906 7.23628C129.102 6.89415 129.205 6.5071 129.205 6.1131C129.205 5.7202 129.104 5.34169 128.902 4.98067C128.708 4.62524 128.414 4.33402 128.057 4.1424C127.695 3.94801 127.325 3.85081 126.947 3.85081ZM126.947 3.40442C127.401 3.40442 127.846 3.52116 128.278 3.75413C128.706 3.98162 129.057 4.32958 129.289 4.7549C129.532 5.18998 129.652 5.64203 129.652 6.1131C129.652 6.57904 129.533 7.028 129.295 7.45845C129.064 7.88189 128.716 8.23021 128.293 8.46231C127.883 8.69506 127.419 8.81766 126.947 8.81819C126.475 8.81779 126.011 8.69519 125.6 8.46231C125.178 8.22952 124.83 7.88137 124.598 7.45845C124.364 7.04846 124.241 6.585 124.239 6.1131C124.239 5.64203 124.36 5.18998 124.604 4.7549C124.837 4.33042 125.189 3.98291 125.616 3.75464C126.05 3.52116 126.492 3.40442 126.947 3.40442Z" fill="black"/>
<path fill-rule="evenodd" clip-rule="evenodd" d="M14.9563 0.0600862C13.6006 0.0960854 12.2361 0.379451 10.939 0.846926C5.91547 2.94414 2.42199 7.52015 0.841579 13.0105C0.574749 14.0412 0.358303 15.0728 0.242111 16.1373C0.242111 16.1718 0.158823 17.2199 0.308433 16.937C0.458043 16.6881 0.524365 16.3214 0.607653 16.0381C1.37267 13.4595 2.30529 11.1129 3.73558 8.8835C7.16273 3.84103 12.6685 0.596989 18.4899 2.39438C19.5716 2.75951 20.5361 3.29282 21.5006 3.92486C21.6831 4.05806 23.0306 5.12312 22.7314 4.15783C22.4821 3.39361 21.8502 2.74306 21.3006 2.22724C19.4508 0.625788 17.2164 -8.3901e-05 14.9563 0.0600862ZM57.4451 5.10512C56.6636 5.10512 56.0651 5.37254 55.6487 5.92179C55.2158 6.45355 55.0168 7.25273 55.0168 8.30134V15.8889C54.0518 14.8244 53.0544 14.0581 52.0401 13.5413C51.3418 13.2041 50.5947 12.9797 49.8263 12.8763C49.3195 12.8082 48.8086 12.775 48.2972 12.7771C45.7523 12.7771 43.6727 13.6745 42.1098 15.4708C40.5453 17.2682 39.7638 19.765 39.7638 22.9762C39.7638 24.4907 39.9643 25.9039 40.3463 27.202C40.7463 28.5 41.3278 29.6309 42.0928 30.5962C42.8286 31.5294 43.7592 32.2906 44.8197 32.8266C45.868 33.3409 46.9986 33.6083 48.2299 33.6083C48.7795 33.6083 49.3116 33.5568 49.8263 33.4576C50.1536 33.406 50.4762 33.3284 50.7913 33.2257C51.5703 32.96 52.305 32.5786 52.9706 32.0942C53.6534 31.5944 54.3182 30.9459 55.0168 30.1642V30.662C55.0168 31.6119 55.2503 32.3272 55.6986 32.8425C56.1474 33.3414 56.7474 33.6083 57.4451 33.6083C58.1268 33.6083 58.7257 33.3589 59.1751 32.8759C59.6244 32.3766 59.8398 31.6453 59.8398 30.662V8.03391C59.8398 7.08611 59.6409 6.35378 59.2244 5.85442C58.7931 5.35557 58.1936 5.10512 57.4451 5.10512ZM120.22 5.10512C119.438 5.10512 118.839 5.37254 118.424 5.92179C118.007 6.45355 117.791 7.25273 117.791 8.30134V15.8889C116.827 14.8244 115.828 14.0581 114.815 13.5413C114.182 13.225 113.434 12.9936 112.602 12.8763C112.094 12.8081 111.583 12.7749 111.071 12.7771C108.527 12.7771 106.465 13.6745 104.884 15.4708C103.321 17.2682 102.538 19.765 102.538 22.9762C102.538 24.4907 102.738 25.9039 103.137 27.202C103.536 28.5 104.101 29.6309 104.867 30.5962C105.603 31.5297 106.534 32.291 107.595 32.8266C108.643 33.3409 109.775 33.6083 111.005 33.6083C111.57 33.6083 112.103 33.5568 112.602 33.4576C112.935 33.4082 113.25 33.3254 113.566 33.2257C114.345 32.96 115.079 32.5786 115.745 32.0942C116.427 31.5944 117.11 30.9459 117.791 30.1642V30.662C117.791 31.6119 118.024 32.3272 118.473 32.8425C118.939 33.3414 119.521 33.6083 120.219 33.6083C120.935 33.6083 121.516 33.3589 121.967 32.8759C122.416 32.3766 122.648 31.6453 122.648 30.662V8.03391C122.648 7.08611 122.432 6.35378 122.017 5.85442C121.584 5.35557 121.002 5.10512 120.219 5.10512H120.22ZM13.6453 6.49109C12.9422 6.47269 12.2457 6.63169 11.6202 6.95342C9.54107 8.001 8.7087 10.5467 9.77345 12.6264C10.8212 14.7066 13.3651 15.5392 15.4447 14.4747C17.5239 13.4261 18.3557 10.8804 17.2915 8.80173C16.9496 8.12261 16.4299 7.54902 15.7878 7.14209C15.1457 6.73517 14.4052 6.51018 13.6453 6.49109ZM71.6004 12.7097C70.1197 12.7267 68.7727 12.9761 67.5419 13.441C66.2772 13.9414 65.2135 14.6573 64.3487 15.5727C63.4829 16.5035 62.8176 17.6195 62.3683 18.9165C61.919 20.215 61.6866 21.6293 61.6866 23.1428C61.6866 26.3709 62.6182 28.8991 64.4474 30.7787C66.1774 32.5602 68.5568 33.491 71.6004 33.5903C71.7829 33.6078 71.9495 33.6083 72.1325 33.6083C73.5798 33.6083 74.844 33.4247 75.9586 33.0426C77.0728 32.6589 77.9874 32.194 78.719 31.6273C79.4681 31.0462 80.0002 30.4465 80.3667 29.8304C80.7328 29.2153 80.9148 28.6666 80.9148 28.2176C80.9148 27.7018 80.7493 27.2858 80.4331 27.0019C80.1015 26.7201 79.6675 26.5694 79.1519 26.5694C78.6532 26.5694 78.2881 26.6867 78.0208 26.9026C77.5092 27.3899 76.9881 27.8671 76.4579 28.3339C76.039 28.6861 75.6 29.0137 75.1432 29.3151C74.66 29.6144 74.1787 29.8484 73.6626 29.9811C73.1639 30.1302 72.5983 30.1971 71.9829 30.1971C71.8493 30.1971 71.7166 30.1971 71.6004 30.1801C70.8359 30.1302 70.1197 29.9142 69.4719 29.5141C68.7229 29.0657 68.1069 28.4007 67.6591 27.5352C67.1928 26.6368 66.9594 25.6051 66.943 24.4408H76.9895C78.321 24.4408 79.3683 24.2413 80.1164 23.8751C80.849 23.476 81.215 22.6434 81.215 21.3624C81.215 19.9646 80.8654 18.6007 80.1498 17.2533C79.4346 15.9213 78.354 14.8244 76.9237 13.9743C75.4923 13.1268 73.7618 12.7097 71.767 12.7097H71.6004ZM92.1433 12.7097C90.6626 12.7267 89.2986 12.9761 88.0848 13.441C86.82 13.9414 85.7558 14.6573 84.873 15.5727C84.0247 16.5035 83.3605 17.6195 82.9122 18.9165C82.4623 20.215 82.2294 21.6293 82.2294 23.1428C82.2294 26.3709 83.144 28.8991 84.9738 30.7787C86.7028 32.5602 89.0991 33.491 92.1433 33.5903C92.3103 33.6078 92.4913 33.6083 92.6743 33.6083C94.1057 33.6083 95.3864 33.4247 96.5005 33.0426C97.6146 32.6589 98.5297 32.194 99.2613 31.6273C99.9944 31.0462 100.542 30.4465 100.909 29.8304C101.274 29.2153 101.458 28.6666 101.458 28.2176C101.458 27.7018 101.291 27.2858 100.958 27.0019C100.642 26.7201 100.21 26.5694 99.6777 26.5694C99.1945 26.5694 98.8289 26.6867 98.5626 26.9026C97.9138 27.5018 97.3997 27.9842 97.0002 28.3339C96.5755 28.6862 96.1309 29.0138 95.6686 29.3151C95.2044 29.6144 94.7041 29.8484 94.2059 29.9811C93.6892 30.1302 93.1417 30.1971 92.5258 30.1971C92.3921 30.1971 92.2595 30.1971 92.1433 30.1801C91.3777 30.1302 90.6621 29.9142 90.0133 29.5141C89.2482 29.0657 88.6493 28.4007 88.184 27.5352C87.7346 26.6368 87.5012 25.6051 87.4848 24.4408H97.5143C98.8623 24.4408 99.9101 24.2413 100.642 23.8751C101.391 23.476 101.756 22.6434 101.756 21.3624C101.756 19.9646 101.391 18.6007 100.676 17.2533C99.9605 15.9213 98.8952 14.8244 97.448 13.9743C96.0172 13.1268 94.3051 12.7097 92.2918 12.7097H92.1433ZM22.2826 12.7442C21.534 12.7442 20.951 12.9931 20.5356 13.4755C20.1032 13.9414 19.8868 14.6737 19.8868 15.6549V30.4794C19.8868 31.4771 20.1197 32.2598 20.6014 32.7926C21.0847 33.3409 21.6826 33.6083 22.4317 33.6083C23.1967 33.6083 23.8116 33.3409 24.2949 32.8266C24.7771 32.2938 25.027 31.527 25.027 30.4794V24.0741C25.027 21.9605 25.1432 20.5467 25.3925 19.781C25.7416 18.8167 26.3082 18.0684 27.0562 17.5192C27.8053 16.9864 28.6366 16.7036 29.5518 16.7036C30.9476 16.7036 31.8962 17.153 32.3625 18.0504C32.8278 18.9499 33.0617 20.2464 33.0617 21.9445V30.4794C33.0617 31.4771 33.2936 32.2598 33.7763 32.7926C34.2581 33.3409 34.874 33.6083 35.639 33.6083C36.3871 33.6083 37.0025 33.3409 37.4683 32.8086C37.9346 32.2938 38.1834 31.5105 38.1834 30.4794V20.9463C38.1834 19.8154 38.1341 18.8825 38.0338 18.1672C37.9341 17.4349 37.7186 16.754 37.369 16.1209C36.8369 15.0399 36.0549 14.2078 34.9902 13.6251C33.9254 13.0424 32.7121 12.7442 31.3641 12.7442C29.9667 12.7442 28.7359 13.026 27.6547 13.5757C26.5904 14.1409 25.6095 15.0064 24.6933 16.2037V15.5727C24.6933 14.9735 24.5941 14.4577 24.3782 14.0247C24.1622 13.5927 23.8625 13.2759 23.497 13.0594C23.1299 12.8429 22.7309 12.7442 22.2826 12.7442ZM71.5845 16.2875H71.6004C72.9299 16.2875 74.0117 16.72 74.8265 17.5855C75.6594 18.45 76.1242 19.765 76.2568 21.529H66.9425C67.126 19.799 67.6247 18.484 68.4396 17.6025C69.2545 16.7205 70.3023 16.2875 71.584 16.2875H71.5845ZM92.1263 16.2875H92.1433C93.4738 16.2875 94.5535 16.72 95.3684 17.5855C96.1843 18.45 96.6665 19.765 96.7832 21.529H87.4853C87.6514 19.799 88.1506 18.484 88.9824 17.6025C89.7978 16.7205 90.8456 16.2875 92.1263 16.2875ZM49.7615 16.5868H49.8263C50.708 16.5868 51.5234 16.8532 52.2555 17.3695C53.0205 17.8848 53.6205 18.6336 54.0688 19.6154C54.5022 20.5971 54.7346 21.7784 54.7346 23.1433C54.7346 24.6069 54.5022 25.8211 54.0688 26.7859C53.6205 27.7512 53.0205 28.466 52.2725 28.9315C51.5398 29.3974 50.708 29.6319 49.8263 29.6319H49.8108C48.9127 29.6319 48.0967 29.382 47.3482 28.8996C46.5842 28.4007 46.0012 27.6684 45.5693 26.7036C45.1364 25.7219 44.9205 24.5406 44.9205 23.1428C44.9205 21.8283 45.121 20.6635 45.52 19.6817C45.9354 18.684 46.5009 17.9178 47.249 17.3855C47.9811 16.8357 48.8294 16.5868 49.7615 16.5868ZM112.551 16.5868H112.602C113.484 16.5868 114.298 16.8532 115.047 17.3695C115.796 17.8848 116.395 18.6336 116.843 19.6154C117.293 20.5971 117.509 21.7784 117.509 23.1433C117.509 24.6069 117.293 25.8211 116.843 26.7859C116.395 27.7512 115.794 28.466 115.063 28.9315C114.326 29.3954 113.472 29.6385 112.602 29.6319H112.586C111.688 29.6319 110.872 29.382 110.123 28.8996C109.376 28.4007 108.777 27.6684 108.344 26.7036C107.912 25.7219 107.696 24.5406 107.696 23.1428C107.696 21.8283 107.893 20.664 108.31 19.6817C108.709 18.684 109.292 17.9178 110.024 17.3855C110.774 16.8357 111.604 16.5868 112.551 16.5868ZM16.4936 16.754C15.162 17.5511 13.599 18.0011 11.9359 18.0011C11.5873 18.0011 11.2541 17.9851 10.9045 17.9512V30.1971C10.9045 31.3285 11.1708 32.1771 11.687 32.7433C12.2191 33.3254 12.8685 33.6083 13.6834 33.6083C14.5142 33.6083 15.1975 33.3254 15.7116 32.7597C16.2283 32.194 16.4936 31.3455 16.4936 30.1971V16.7545V16.754Z" fill="black"/>
</svg>
