<svg width="131" height="60" viewBox="0 0 131 60" fill="none" xmlns="http://www.w3.org/2000/svg">
<path d="M65.3341 0L31.5931 14.4602H10.5415V20.3572H0V60H130.658V20.3572H120.122V14.4602H99.0752L65.3341 0Z" fill="black"/>
<path d="M96.4935 25.0049V31.4142L100.638 31.4195L101.5 25.0049H96.4935ZM118.909 30.5569C119.176 30.5569 119.416 30.5359 119.416 30.2118C119.416 29.9557 119.181 29.9086 118.961 29.9086H118.528V30.5569H118.909ZM118.528 31.7331H118.209V29.6368H119.008C119.5 29.6368 119.745 29.8197 119.745 30.2327C119.745 30.6091 119.51 30.7712 119.207 30.8078L119.803 31.7279H119.447L118.893 30.8182H118.528V31.7331ZM118.909 32.2036C119.73 32.2036 120.378 31.5606 120.378 30.6823C120.378 29.825 119.73 29.1715 118.909 29.1715C118.078 29.1715 117.43 29.8197 117.43 30.6823C117.43 31.5606 118.078 32.2036 118.909 32.2036ZM117.064 30.6823C117.064 29.642 117.911 28.8683 118.909 28.8683C119.897 28.8683 120.749 29.6368 120.749 30.6823C120.749 31.7331 119.902 32.5068 118.909 32.5068C117.911 32.5068 117.064 31.7331 117.064 30.6823ZM20.8426 46.8416V25.0049H14.8689V52.0485H30.0827V46.8416H20.8426ZM80.9609 52.0433H95.1764V46.8364H86.9607V43.4435H95.1764V38.43H86.9607V35.0162H95.1764V29.7884H80.9609V29.8145V52.0433ZM43.7338 35.0162H38.4762V46.8155H43.7286L43.7338 35.0162ZM49.7127 49.2046C49.7127 50.7729 48.4427 52.0485 46.8696 52.0485H35.3351C33.7672 52.0485 32.4973 50.7729 32.4973 49.2046V32.6323C32.4973 31.064 33.7672 29.7884 35.3351 29.7884H46.8696C48.4375 29.7884 49.7127 31.0587 49.7127 32.6271V32.6323V49.2046ZM71.5639 29.7884V46.8416H67.9578V29.7884H62.7053V46.8468H59.0992V29.7884H53.1151V49.2046C53.1151 50.7782 54.385 52.0485 55.9582 52.0485H63.0294C64.221 52.0485 65.329 51.2225 65.329 50.0358C65.329 51.2278 66.4369 52.0485 67.6285 52.0485H74.6997C76.2676 52.0485 77.5376 50.7729 77.5376 49.2046V29.7884H71.5639ZM116.144 43.6369L116.108 43.5585L116.04 43.4174L116.003 43.3442C115.057 41.4465 112.935 39.8624 109.528 38.4927L109.408 38.4457C108.733 38.1791 106.68 37.374 106.45 36.067C106.387 35.7011 106.533 35.126 106.941 34.7757C107.369 34.3366 108.028 34.1118 108.901 34.1118C110.291 34.1118 111.875 34.6816 112.695 35.0214C114.42 35.7377 115.935 36.3755 115.951 36.3859L116.103 36.4486V31.592L116.05 31.5606C116.019 31.5397 112.758 29.4799 109.46 29.0094C109.089 28.978 108.718 28.9624 108.347 28.9624C105.31 28.9624 103.011 30.0654 101.516 32.2402C100.256 34.0281 100.121 36.8564 101.187 38.9632C102.561 41.3524 104.767 42.3457 106.899 43.3076C107.777 43.7049 108.686 44.1179 109.538 44.6198L109.549 44.625C110.51 45.2053 111.002 46.0888 110.798 46.873C110.589 47.6885 109.653 48.2374 108.477 48.2374C108.315 48.2374 108.153 48.227 107.997 48.2061L107.939 48.1956C105.676 47.8819 101.082 46.1724 101.04 46.1515L100.894 46.0992V51.4264L100.967 51.4526C101.009 51.4682 105.451 52.9373 109.397 52.9373C111.55 52.9373 113.176 52.5034 114.226 51.646C114.252 51.6303 116.662 49.6908 116.772 46.392C116.787 45.4928 116.578 44.5623 116.144 43.6369Z" fill="#FFFBF1"/>
</svg>
